<svg width="308" height="308" viewBox="0 0 308 308" fill="none" xmlns="http://www.w3.org/2000/svg">
<rect x="2" y="2" width="304" height="304" rx="17" fill="#00070D" stroke="#00070D" stroke-width="4"/>
<g filter="url(#filter0_d_1_2)">
<mask id="path-2-outside-1_1_2" maskUnits="userSpaceOnUse" x="66" y="56" width="174" height="194" fill="black">
<rect fill="white" x="66" y="56" width="174" height="194"/>
<path d="M67.6562 129L84.8402 58.92H103.08L120.456 129H105.768L102.408 113.16H85.7042L82.3442 129H67.6562ZM88.1042 101.64H99.9123L96.5522 84.744C96.1042 82.312 95.6242 79.912 95.1123 77.544C94.6643 75.112 94.3123 73.224 94.0562 71.88C93.8002 73.224 93.4482 75.08 93.0002 77.448C92.6163 79.816 92.1683 82.216 91.6562 84.648L88.1042 101.64ZM154.019 129.96C149.347 129.96 145.283 129.096 141.827 127.368C138.371 125.576 135.683 123.112 133.763 119.976C131.907 116.776 130.979 113.064 130.979 108.84V96.36C130.979 92.136 131.907 88.456 133.763 85.32C135.683 82.12 138.371 79.656 141.827 77.928C145.283 76.136 149.347 75.24 154.019 75.24C158.755 75.24 162.819 76.136 166.211 77.928C169.667 79.656 172.323 82.12 174.179 85.32C176.099 88.456 177.059 92.136 177.059 96.36V108.84C177.059 113.064 176.099 116.776 174.179 119.976C172.323 123.112 169.667 125.576 166.211 127.368C162.819 129.096 158.755 129.96 154.019 129.96ZM154.019 117.48C156.835 117.48 158.979 116.744 160.451 115.272C161.923 113.736 162.659 111.592 162.659 108.84V96.36C162.659 93.544 161.923 91.4 160.451 89.928C158.979 88.456 156.835 87.72 154.019 87.72C151.267 87.72 149.123 88.456 147.587 89.928C146.115 91.4 145.379 93.544 145.379 96.36V108.84C145.379 111.592 146.115 113.736 147.587 115.272C149.123 116.744 151.267 117.48 154.019 117.48ZM214.749 129.96C210.077 129.96 205.981 129.096 202.461 127.368C198.941 125.576 196.189 123.112 194.205 119.976C192.285 116.776 191.325 113.064 191.325 108.84V79.08C191.325 74.792 192.285 71.08 194.205 67.944C196.189 64.808 198.941 62.376 202.461 60.648C205.981 58.856 210.077 57.96 214.749 57.96C219.485 57.96 223.581 58.856 227.037 60.648C230.557 62.376 233.277 64.808 235.197 67.944C237.181 71.08 238.173 74.792 238.173 79.08H223.773C223.773 76.264 222.973 74.12 221.373 72.648C219.837 71.176 217.629 70.44 214.749 70.44C211.869 70.44 209.629 71.176 208.029 72.648C206.493 74.12 205.725 76.264 205.725 79.08V108.84C205.725 111.592 206.493 113.736 208.029 115.272C209.629 116.744 211.869 117.48 214.749 117.48C217.629 117.48 219.837 116.744 221.373 115.272C222.973 113.736 223.773 111.592 223.773 108.84H238.173C238.173 113.064 237.181 116.776 235.197 119.976C233.277 123.112 230.557 125.576 227.037 127.368C223.581 129.096 219.485 129.96 214.749 129.96ZM101.478 249V236.136L128.07 209.736C130.758 207.048 132.102 203.816 132.102 200.04C132.102 197.416 131.302 195.24 129.702 193.512C128.166 191.784 126.118 190.92 123.558 190.92C120.934 190.92 118.79 191.816 117.126 193.608C115.526 195.4 114.726 197.704 114.726 200.52H100.326C100.326 196.04 101.318 192.136 103.302 188.808C105.35 185.416 108.134 182.76 111.654 180.84C115.238 178.92 119.366 177.96 124.038 177.96C128.582 177.96 132.55 178.856 135.942 180.648C139.334 182.376 141.99 184.84 143.91 188.04C145.83 191.176 146.79 194.824 146.79 198.984C146.79 202.696 145.99 206.312 144.39 209.832C142.79 213.288 140.198 216.712 136.614 220.104L119.91 236.04H147.558V249H101.478ZM162.88 249V236.04H180.544V193.512L162.688 206.376V190.44L179.104 178.92H194.944V236.04H208.96V249H162.88Z"/>
</mask>
<path d="M67.6562 129L84.8402 58.92H103.08L120.456 129H105.768L102.408 113.16H85.7042L82.3442 129H67.6562ZM88.1042 101.64H99.9123L96.5522 84.744C96.1042 82.312 95.6242 79.912 95.1123 77.544C94.6643 75.112 94.3123 73.224 94.0562 71.88C93.8002 73.224 93.4482 75.08 93.0002 77.448C92.6163 79.816 92.1683 82.216 91.6562 84.648L88.1042 101.64ZM154.019 129.96C149.347 129.96 145.283 129.096 141.827 127.368C138.371 125.576 135.683 123.112 133.763 119.976C131.907 116.776 130.979 113.064 130.979 108.84V96.36C130.979 92.136 131.907 88.456 133.763 85.32C135.683 82.12 138.371 79.656 141.827 77.928C145.283 76.136 149.347 75.24 154.019 75.24C158.755 75.24 162.819 76.136 166.211 77.928C169.667 79.656 172.323 82.12 174.179 85.32C176.099 88.456 177.059 92.136 177.059 96.36V108.84C177.059 113.064 176.099 116.776 174.179 119.976C172.323 123.112 169.667 125.576 166.211 127.368C162.819 129.096 158.755 129.96 154.019 129.96ZM154.019 117.48C156.835 117.48 158.979 116.744 160.451 115.272C161.923 113.736 162.659 111.592 162.659 108.84V96.36C162.659 93.544 161.923 91.4 160.451 89.928C158.979 88.456 156.835 87.72 154.019 87.72C151.267 87.72 149.123 88.456 147.587 89.928C146.115 91.4 145.379 93.544 145.379 96.36V108.84C145.379 111.592 146.115 113.736 147.587 115.272C149.123 116.744 151.267 117.48 154.019 117.48ZM214.749 129.96C210.077 129.96 205.981 129.096 202.461 127.368C198.941 125.576 196.189 123.112 194.205 119.976C192.285 116.776 191.325 113.064 191.325 108.84V79.08C191.325 74.792 192.285 71.08 194.205 67.944C196.189 64.808 198.941 62.376 202.461 60.648C205.981 58.856 210.077 57.96 214.749 57.96C219.485 57.96 223.581 58.856 227.037 60.648C230.557 62.376 233.277 64.808 235.197 67.944C237.181 71.08 238.173 74.792 238.173 79.08H223.773C223.773 76.264 222.973 74.12 221.373 72.648C219.837 71.176 217.629 70.44 214.749 70.44C211.869 70.44 209.629 71.176 208.029 72.648C206.493 74.12 205.725 76.264 205.725 79.08V108.84C205.725 111.592 206.493 113.736 208.029 115.272C209.629 116.744 211.869 117.48 214.749 117.48C217.629 117.48 219.837 116.744 221.373 115.272C222.973 113.736 223.773 111.592 223.773 108.84H238.173C238.173 113.064 237.181 116.776 235.197 119.976C233.277 123.112 230.557 125.576 227.037 127.368C223.581 129.096 219.485 129.96 214.749 129.96ZM101.478 249V236.136L128.07 209.736C130.758 207.048 132.102 203.816 132.102 200.04C132.102 197.416 131.302 195.24 129.702 193.512C128.166 191.784 126.118 190.92 123.558 190.92C120.934 190.92 118.79 191.816 117.126 193.608C115.526 195.4 114.726 197.704 114.726 200.52H100.326C100.326 196.04 101.318 192.136 103.302 188.808C105.35 185.416 108.134 182.76 111.654 180.84C115.238 178.92 119.366 177.96 124.038 177.96C128.582 177.96 132.55 178.856 135.942 180.648C139.334 182.376 141.99 184.84 143.91 188.04C145.83 191.176 146.79 194.824 146.79 198.984C146.79 202.696 145.99 206.312 144.39 209.832C142.79 213.288 140.198 216.712 136.614 220.104L119.91 236.04H147.558V249H101.478ZM162.88 249V236.04H180.544V193.512L162.688 206.376V190.44L179.104 178.92H194.944V236.04H208.96V249H162.88Z" fill="#8BAACB"/>
<path d="M67.6562 129L66.685 128.762L66.3814 130H67.6562V129ZM84.8402 58.92V57.92H84.0558L83.869 58.6818L84.8402 58.92ZM103.08 58.92L104.051 58.6793L103.863 57.92H103.08V58.92ZM120.456 129V130H121.734L121.427 128.759L120.456 129ZM105.768 129L104.79 129.208L104.958 130H105.768V129ZM102.408 113.16L103.386 112.952L103.218 112.16H102.408V113.16ZM85.7042 113.16V112.16H84.8941L84.726 112.952L85.7042 113.16ZM82.3442 129V130H83.1544L83.3225 129.208L82.3442 129ZM88.1042 101.64L87.1254 101.435L86.8736 102.64H88.1042V101.64ZM99.9123 101.64V102.64H101.131L100.893 101.445L99.9123 101.64ZM96.5522 84.744L95.5687 84.9252L95.5715 84.939L96.5522 84.744ZM95.1123 77.544L94.1288 77.7252L94.1316 77.7403L94.1348 77.7553L95.1123 77.544ZM94.0562 71.88L95.0386 71.6929H93.0739L94.0562 71.88ZM93.0002 77.448L92.0177 77.2621L92.0152 77.275L92.0131 77.2879L93.0002 77.448ZM91.6562 84.648L90.6777 84.442L90.6774 84.4434L91.6562 84.648ZM68.6275 129.238L85.8115 59.1581L83.869 58.6818L66.685 128.762L68.6275 129.238ZM84.8402 59.92H103.08V57.92H84.8402V59.92ZM102.11 59.1607L119.486 129.241L121.427 128.759L104.051 58.6793L102.11 59.1607ZM120.456 128H105.768V130H120.456V128ZM106.746 128.792L103.386 112.952L101.43 113.368L104.79 129.208L106.746 128.792ZM102.408 112.16H85.7042V114.16H102.408V112.16ZM84.726 112.952L81.366 128.792L83.3225 129.208L86.6825 113.368L84.726 112.952ZM82.3442 128H67.6562V130H82.3442V128ZM88.1042 102.64H99.9123V100.64H88.1042V102.64ZM100.893 101.445L97.533 84.549L95.5715 84.939L98.9315 101.835L100.893 101.445ZM97.5357 84.5628C97.0859 82.121 96.6039 79.7109 96.0897 77.3327L94.1348 77.7553C94.6446 80.1131 95.1226 82.503 95.5688 84.9252L97.5357 84.5628ZM96.0957 77.3628C95.6476 74.9302 95.2952 73.0398 95.0386 71.6929L93.0739 72.0671C93.3293 73.4082 93.6809 75.2938 94.1288 77.7252L96.0957 77.3628ZM93.0739 71.6929C92.8178 73.0375 92.4657 74.894 92.0177 77.2621L93.9828 77.6339C94.4308 75.266 94.7827 73.4105 95.0386 72.0671L93.0739 71.6929ZM92.0131 77.2879C91.6317 79.64 91.1866 82.0247 90.6777 84.442L92.6348 84.854C93.1499 82.4073 93.6008 79.992 93.9874 77.6081L92.0131 77.2879ZM90.6774 84.4434L87.1254 101.435L89.0831 101.845L92.6351 84.8526L90.6774 84.4434ZM141.827 127.368L141.366 128.256L141.373 128.259L141.38 128.262L141.827 127.368ZM133.763 119.976L132.898 120.478L132.904 120.488L132.91 120.498L133.763 119.976ZM133.763 85.32L132.905 84.8055L132.902 84.8107L133.763 85.32ZM141.827 77.928L142.274 78.8224L142.281 78.8191L142.287 78.8158L141.827 77.928ZM166.211 77.928L165.744 78.8122L165.754 78.8174L165.764 78.8224L166.211 77.928ZM174.179 85.32L173.314 85.8217L173.32 85.832L173.326 85.8422L174.179 85.32ZM174.179 119.976L173.321 119.461L173.318 119.467L174.179 119.976ZM166.211 127.368L166.665 128.259L166.671 128.256L166.211 127.368ZM160.451 115.272L161.158 115.979L161.165 115.972L161.173 115.964L160.451 115.272ZM147.587 89.928L146.895 89.206L146.887 89.2134L146.88 89.2209L147.587 89.928ZM147.587 115.272L146.865 115.964L146.879 115.979L146.895 115.994L147.587 115.272ZM154.019 128.96C149.47 128.96 145.565 128.119 142.274 126.474L141.38 128.262C145 130.073 149.224 130.96 154.019 130.96V128.96ZM142.287 126.48C138.983 124.767 136.435 122.425 134.616 119.454L132.91 120.498C134.931 123.799 137.759 126.385 141.366 128.256L142.287 126.48ZM134.628 119.474C132.872 116.447 131.979 112.913 131.979 108.84H129.979C129.979 113.215 130.941 117.105 132.898 120.478L134.628 119.474ZM131.979 108.84V96.36H129.979V108.84H131.979ZM131.979 96.36C131.979 92.2863 132.872 88.788 134.623 85.8293L132.902 84.8107C130.941 88.124 129.979 91.9857 129.979 96.36H131.979ZM134.62 85.8345C136.439 82.8036 138.982 80.4685 142.274 78.8224L141.38 77.0336C137.76 78.8435 134.927 81.4364 132.905 84.8055L134.62 85.8345ZM142.287 78.8158C145.575 77.1109 149.475 76.24 154.019 76.24V74.24C149.218 74.24 144.99 75.1611 141.366 77.0402L142.287 78.8158ZM154.019 76.24C158.63 76.24 162.526 77.1121 165.744 78.8122L166.678 77.0438C163.112 75.1599 158.88 74.24 154.019 74.24V76.24ZM165.764 78.8224C169.053 80.4672 171.56 82.7984 173.314 85.8217L175.044 84.8183C173.085 81.4416 170.28 78.8448 166.658 77.0336L165.764 78.8224ZM173.326 85.8422C175.136 88.7987 176.059 92.2923 176.059 96.36H178.059C178.059 91.9797 177.061 88.1133 175.032 84.7978L173.326 85.8422ZM176.059 96.36V108.84H178.059V96.36H176.059ZM176.059 108.84C176.059 112.907 175.136 116.437 173.321 119.462L175.036 120.49C177.061 117.115 178.059 113.221 178.059 108.84H176.059ZM173.318 119.467C171.564 122.43 169.052 124.768 165.75 126.48L166.671 128.256C170.281 126.384 173.081 123.794 175.039 120.485L173.318 119.467ZM165.757 126.477C162.536 128.118 158.635 128.96 154.019 128.96V130.96C158.875 130.96 163.102 130.074 166.665 128.259L165.757 126.477ZM154.019 118.48C157.004 118.48 159.44 117.697 161.158 115.979L159.744 114.565C158.518 115.791 156.666 116.48 154.019 116.48V118.48ZM161.173 115.964C162.871 114.192 163.659 111.771 163.659 108.84H161.659C161.659 111.413 160.975 113.28 159.729 114.58L161.173 115.964ZM163.659 108.84V96.36H161.659V108.84H163.659ZM163.659 96.36C163.659 93.3749 162.876 90.9389 161.158 89.2209L159.744 90.6351C160.97 91.8611 161.659 93.7131 161.659 96.36H163.659ZM161.158 89.2209C159.44 87.5028 157.004 86.72 154.019 86.72V88.72C156.666 88.72 158.518 89.4092 159.744 90.6351L161.158 89.2209ZM154.019 86.72C151.087 86.72 148.667 87.5078 146.895 89.206L148.279 90.65C149.579 89.4042 151.446 88.72 154.019 88.72V86.72ZM146.88 89.2209C145.162 90.9389 144.379 93.3749 144.379 96.36H146.379C146.379 93.7131 147.068 91.8611 148.294 90.6351L146.88 89.2209ZM144.379 96.36V108.84H146.379V96.36H144.379ZM144.379 108.84C144.379 111.771 145.167 114.192 146.865 115.964L148.309 114.58C147.063 113.28 146.379 111.413 146.379 108.84H144.379ZM146.895 115.994C148.667 117.692 151.087 118.48 154.019 118.48V116.48C151.446 116.48 149.579 115.796 148.279 114.55L146.895 115.994ZM202.461 127.368L202.008 128.259L202.014 128.262L202.021 128.266L202.461 127.368ZM194.205 119.976L193.348 120.49L193.354 120.501L193.36 120.511L194.205 119.976ZM194.205 67.944L193.36 67.4094L193.356 67.4156L193.352 67.4218L194.205 67.944ZM202.461 60.648L202.902 61.5457L202.908 61.5425L202.915 61.5392L202.461 60.648ZM227.037 60.648L226.577 61.5358L226.587 61.5408L226.597 61.5457L227.037 60.648ZM235.197 67.944L234.344 68.4662L234.348 68.4724L234.352 68.4786L235.197 67.944ZM238.173 79.08V80.08H239.173V79.08H238.173ZM223.773 79.08H222.773V80.08H223.773V79.08ZM221.373 72.648L220.681 73.37L220.689 73.377L220.696 73.3839L221.373 72.648ZM208.029 72.648L207.352 71.9121L207.345 71.919L207.337 71.926L208.029 72.648ZM208.029 115.272L207.322 115.979L207.337 115.994L207.352 116.008L208.029 115.272ZM221.373 115.272L222.065 115.994L222.066 115.993L221.373 115.272ZM223.773 108.84V107.84H222.773V108.84H223.773ZM238.173 108.84H239.173V107.84H238.173V108.84ZM235.197 119.976L234.347 119.449L234.344 119.454L235.197 119.976ZM227.037 127.368L227.484 128.262L227.491 128.259L227.037 127.368ZM214.749 128.96C210.201 128.96 206.261 128.119 202.902 126.47L202.021 128.266C205.702 130.073 209.953 130.96 214.749 130.96V128.96ZM202.915 126.477C199.544 124.761 196.932 122.416 195.05 119.441L193.36 120.511C195.446 123.808 198.338 126.391 202.008 128.259L202.915 126.477ZM195.063 119.462C193.248 116.437 192.325 112.907 192.325 108.84H190.325C190.325 113.221 191.323 117.115 193.348 120.49L195.063 119.462ZM192.325 108.84V79.08H190.325V108.84H192.325ZM192.325 79.08C192.325 74.9452 193.249 71.4204 195.058 68.4662L193.352 67.4218C191.321 70.7396 190.325 74.6388 190.325 79.08H192.325ZM195.05 68.4786C196.93 65.5076 199.538 63.1971 202.902 61.5457L202.021 59.7503C198.345 61.5549 195.449 64.1083 193.36 67.4094L195.05 68.4786ZM202.915 61.5392C206.271 59.8307 210.206 58.96 214.749 58.96V56.96C209.948 56.96 205.692 57.8813 202.008 59.7568L202.915 61.5392ZM214.749 58.96C219.359 58.96 223.291 59.8318 226.577 61.5358L227.498 59.7602C223.872 57.8802 219.611 56.96 214.749 56.96V58.96ZM226.597 61.5457C229.958 63.1959 232.53 65.5027 234.344 68.4662L236.05 67.4218C234.024 64.1133 231.156 61.5561 227.478 59.7503L226.597 61.5457ZM234.352 68.4786C236.22 71.431 237.173 74.9512 237.173 79.08H239.173C239.173 74.6328 238.142 70.729 236.042 67.4094L234.352 68.4786ZM238.173 78.08H223.773V80.08H238.173V78.08ZM224.773 79.08C224.773 76.0717 223.913 73.6254 222.05 71.9121L220.696 73.3839C222.034 74.6146 222.773 76.4563 222.773 79.08H224.773ZM222.065 71.926C220.285 70.2202 217.794 69.44 214.749 69.44V71.44C217.465 71.44 219.389 72.1318 220.681 73.37L222.065 71.926ZM214.749 69.44C211.702 69.44 209.19 70.2212 207.352 71.9121L208.706 73.3839C210.068 72.1308 212.037 71.44 214.749 71.44V69.44ZM207.337 71.926C205.547 73.642 204.725 76.0834 204.725 79.08H206.725C206.725 76.4446 207.44 74.598 208.721 73.37L207.337 71.926ZM204.725 79.08V108.84H206.725V79.08H204.725ZM204.725 108.84C204.725 111.783 205.552 114.209 207.322 115.979L208.736 114.565C207.435 113.263 206.725 111.401 206.725 108.84H204.725ZM207.352 116.008C209.19 117.699 211.702 118.48 214.749 118.48V116.48C212.037 116.48 210.068 115.789 208.706 114.536L207.352 116.008ZM214.749 118.48C217.794 118.48 220.285 117.7 222.065 115.994L220.681 114.55C219.389 115.788 217.465 116.48 214.749 116.48V118.48ZM222.066 115.993C223.907 114.225 224.773 111.794 224.773 108.84H222.773C222.773 111.39 222.039 113.247 220.681 114.551L222.066 115.993ZM223.773 109.84H238.173V107.84H223.773V109.84ZM237.173 108.84C237.173 112.901 236.222 116.426 234.347 119.449L236.047 120.503C238.141 117.126 239.173 113.227 239.173 108.84H237.173ZM234.344 119.454C232.528 122.421 229.952 124.762 226.584 126.477L227.491 128.259C231.163 126.39 234.026 123.803 236.05 120.498L234.344 119.454ZM226.59 126.474C223.301 128.118 219.364 128.96 214.749 128.96V130.96C219.606 130.96 223.862 130.074 227.484 128.262L226.59 126.474ZM101.478 249H100.478V250H101.478V249ZM101.478 236.136L100.773 235.426L100.478 235.72V236.136H101.478ZM128.07 209.736L128.774 210.446L128.777 210.443L128.07 209.736ZM129.702 193.512L128.954 194.176L128.961 194.184L128.968 194.191L129.702 193.512ZM117.126 193.608L116.393 192.928L116.386 192.935L116.38 192.942L117.126 193.608ZM114.726 200.52V201.52H115.726V200.52H114.726ZM100.326 200.52H99.3255V201.52H100.326V200.52ZM103.302 188.808L102.445 188.291L102.443 188.296L103.302 188.808ZM111.654 180.84L111.181 179.958L111.175 179.962L111.654 180.84ZM135.942 180.648L135.474 181.532L135.481 181.536L135.488 181.539L135.942 180.648ZM143.91 188.04L143.052 188.555L143.057 188.562L143.91 188.04ZM144.39 209.832L145.297 210.252L145.3 210.246L144.39 209.832ZM136.614 220.104L135.926 219.378L135.923 219.38L136.614 220.104ZM119.91 236.04L119.219 235.316L117.413 237.04H119.91V236.04ZM147.558 236.04H148.558V235.04H147.558V236.04ZM147.558 249V250H148.558V249H147.558ZM102.478 249V236.136H100.478V249H102.478ZM102.182 236.846L128.774 210.446L127.365 209.026L100.773 235.426L102.182 236.846ZM128.777 210.443C131.651 207.569 133.102 204.083 133.102 200.04H131.102C131.102 203.549 129.864 206.527 127.362 209.029L128.777 210.443ZM133.102 200.04C133.102 197.195 132.226 194.767 130.435 192.833L128.968 194.191C130.377 195.713 131.102 197.637 131.102 200.04H133.102ZM130.449 192.848C128.702 190.882 126.369 189.92 123.558 189.92V191.92C125.866 191.92 127.629 192.686 128.954 194.176L130.449 192.848ZM123.558 189.92C120.678 189.92 118.261 190.916 116.393 192.928L117.858 194.288C119.318 192.716 121.189 191.92 123.558 191.92V189.92ZM116.38 192.942C114.588 194.948 113.726 197.503 113.726 200.52H115.726C115.726 197.905 116.463 195.852 117.871 194.274L116.38 192.942ZM114.726 199.52H100.326V201.52H114.726V199.52ZM101.326 200.52C101.326 196.192 102.282 192.47 104.16 189.32L102.443 188.296C100.353 191.802 99.3255 195.888 99.3255 200.52H101.326ZM104.158 189.325C106.113 186.086 108.766 183.554 112.132 181.718L111.175 179.962C107.501 181.966 104.586 184.746 102.445 188.291L104.158 189.325ZM112.126 181.721C115.544 179.89 119.506 178.96 124.038 178.96V176.96C119.225 176.96 114.931 177.95 111.181 179.959L112.126 181.721ZM124.038 178.96C128.449 178.96 132.251 179.829 135.474 181.532L136.409 179.764C132.848 177.883 128.714 176.96 124.038 176.96V178.96ZM135.488 181.539C138.716 183.184 141.231 185.519 143.052 188.554L144.767 187.525C142.748 184.161 139.951 181.568 136.395 179.757L135.488 181.539ZM143.057 188.562C144.868 191.521 145.79 194.983 145.79 198.984H147.79C147.79 194.665 146.791 190.831 144.762 187.518L143.057 188.562ZM145.79 198.984C145.79 202.547 145.023 206.023 143.479 209.418L145.3 210.246C146.956 206.601 147.79 202.845 147.79 198.984H145.79ZM143.482 209.412C141.949 212.724 139.444 216.048 135.926 219.378L137.301 220.83C140.951 217.376 143.63 213.852 145.297 210.252L143.482 209.412ZM135.923 219.38L119.219 235.316L120.6 236.764L137.304 220.828L135.923 219.38ZM119.91 237.04H147.558V235.04H119.91V237.04ZM146.558 236.04V249H148.558V236.04H146.558ZM147.558 248H101.478V250H147.558V248ZM162.88 249H161.88V250H162.88V249ZM162.88 236.04V235.04H161.88V236.04H162.88ZM180.544 236.04V237.04H181.544V236.04H180.544ZM180.544 193.512H181.544V191.559L179.959 192.701L180.544 193.512ZM162.688 206.376H161.688V208.329L163.273 207.187L162.688 206.376ZM162.688 190.44L162.114 189.621L161.688 189.92V190.44H162.688ZM179.104 178.92V177.92H178.788L178.53 178.101L179.104 178.92ZM194.944 178.92H195.944V177.92H194.944V178.92ZM194.944 236.04H193.944V237.04H194.944V236.04ZM208.96 236.04H209.96V235.04H208.96V236.04ZM208.96 249V250H209.96V249H208.96ZM163.88 249V236.04H161.88V249H163.88ZM162.88 237.04H180.544V235.04H162.88V237.04ZM181.544 236.04V193.512H179.544V236.04H181.544ZM179.959 192.701L162.103 205.565L163.273 207.187L181.129 194.323L179.959 192.701ZM163.688 206.376V190.44H161.688V206.376H163.688ZM163.262 191.259L179.678 179.739L178.53 178.101L162.114 189.621L163.262 191.259ZM179.104 179.92H194.944V177.92H179.104V179.92ZM193.944 178.92V236.04H195.944V178.92H193.944ZM194.944 237.04H208.96V235.04H194.944V237.04ZM207.96 236.04V249H209.96V236.04H207.96ZM208.96 248H162.88V250H208.96V248Z" fill="#004482" mask="url(#path-2-outside-1_1_2)"/>
</g>
<path d="M45.5173 291.035C27.0358 291.035 12 275.999 12 257.517C12 239.036 27.0358 224 45.5173 224C57.4428 224 68.565 230.418 74.5429 240.748L60.0375 249.142C57.0455 243.971 51.4813 240.759 45.5173 240.759C36.2763 240.759 28.7586 248.276 28.7586 257.517C28.7586 266.758 36.2763 274.276 45.5173 274.276C51.482 274.276 57.0462 271.063 60.0384 265.892L74.5438 274.285C68.5659 284.617 57.4435 291.035 45.5173 291.035Z" fill="#8BAACB" stroke="#004482"/>
<path d="M79.0345 255.655H75.3101V251.931H71.5864V255.655H67.8621V259.379H71.5864V263.104H75.3101V259.379H79.0345V255.655Z" fill="#8BAACB" stroke="#004482"/>
<path d="M93 255.655H89.2756V251.931H85.5519V255.655H81.8276V259.379H85.5519V263.104H89.2756V259.379H93V255.655Z" fill="#8BAACB" stroke="#004482"/>
<defs>
<filter id="filter0_d_1_2" x="-60.3438" y="-70.04" width="426.517" height="447.04" filterUnits="userSpaceOnUse" color-interpolation-filters="sRGB">
<feFlood flood-opacity="0" result="BackgroundImageFix"/>
<feColorMatrix in="SourceAlpha" type="matrix" values="0 0 0 0 0 0 0 0 0 0 0 0 0 0 0 0 0 0 127 0" result="hardAlpha"/>
<feOffset/>
<feGaussianBlur stdDeviation="64"/>
<feComposite in2="hardAlpha" operator="out"/>
<feColorMatrix type="matrix" values="0 0 0 0 0.396078 0 0 0 0 0.603922 0 0 0 0 0.823529 0 0 0 1 0"/>
<feBlend mode="normal" in2="BackgroundImageFix" result="effect1_dropShadow_1_2"/>
<feBlend mode="normal" in="SourceGraphic" in2="effect1_dropShadow_1_2" result="shape"/>
</filter>
</defs>
</svg>
